<mxfile host="app.diagrams.net" modified="2023-05-31T22:00:30.984Z" agent="Mozilla/5.0 (Windows NT 10.0; Win64; x64) AppleWebKit/537.36 (KHTML, like Gecko) Chrome/113.0.0.0 Safari/537.36 Edg/113.0.1774.57" etag="lpNDnjfi3TE5f6lV72Tl" version="21.3.6" type="device">
  <diagram name="Page-1" id="dcNrq3EZDVbJjcfLy3L3">
    <mxGraphModel dx="4090" dy="1260" grid="1" gridSize="10" guides="1" tooltips="1" connect="1" arrows="1" fold="1" page="1" pageScale="1" pageWidth="850" pageHeight="1100" math="0" shadow="0">
      <root>
        <mxCell id="0" />
        <mxCell id="1" parent="0" />
        <mxCell id="1jOMe3DSmXeNATYC33Cs-1" value="" style="html=1;overflow=block;blockSpacing=1;whiteSpace=wrap;fontSize=13;spacing=3.8;strokeColor=#3a414a;strokeOpacity=100;fillOpacity=100;rounded=1;absoluteArcSize=1;arcSize=1.5;fillColor=#edf5ff;strokeWidth=0.8;lucidId=qksZ~IvJ2rkg;" parent="1" vertex="1">
          <mxGeometry x="-1465" y="410" width="290" height="300" as="geometry" />
        </mxCell>
        <mxCell id="1jOMe3DSmXeNATYC33Cs-2" value="" style="html=1;overflow=block;blockSpacing=1;whiteSpace=wrap;shape=image;fontSize=13;spacing=0;strokeColor=#ffffff;strokeOpacity=100;strokeWidth=3;image=https://images.lucid.app/images/e1678ac7-073d-4d77-ae5f-3718ac71f8c2/content;imageAspect=0;lucidId=zksZgOa.bNGP;" parent="1" vertex="1">
          <mxGeometry x="-1420" y="445" width="180" height="180" as="geometry" />
        </mxCell>
        <mxCell id="1jOMe3DSmXeNATYC33Cs-3" value="" style="html=1;overflow=block;blockSpacing=1;whiteSpace=wrap;shape=image;fontSize=13;spacing=0;strokeColor=#ffffff;strokeOpacity=100;strokeWidth=3;image=https://images.lucid.app/images/c136f2e1-bb6f-41cf-a175-960c0fe65cb5/content;imageAspect=0;lucidId=zksZTLr5oBY_;imageBorder=#FFFFFF;" parent="1" vertex="1">
          <mxGeometry x="-1390" y="470" width="174.5" height="180" as="geometry" />
        </mxCell>
        <mxCell id="1jOMe3DSmXeNATYC33Cs-4" value="&lt;font size=&quot;1&quot; style=&quot;&quot;&gt;&lt;b style=&quot;font-size: 25px;&quot;&gt;Input Data&lt;/b&gt;&lt;/font&gt;" style="html=1;overflow=block;blockSpacing=1;whiteSpace=wrap;fontSize=16.7;fontColor=#3a414a;spacing=3.8;strokeOpacity=0;fillOpacity=0;rounded=1;absoluteArcSize=1;arcSize=9;fillColor=#ffffff;strokeWidth=0.8;lucidId=ilsZxkLqA2Q9;" parent="1" vertex="1">
          <mxGeometry x="-1410" y="659" width="180" height="45" as="geometry" />
        </mxCell>
        <mxCell id="1jOMe3DSmXeNATYC33Cs-387" style="edgeStyle=orthogonalEdgeStyle;rounded=0;orthogonalLoop=1;jettySize=auto;html=1;exitX=0.5;exitY=0;exitDx=0;exitDy=0;entryX=0.5;entryY=1;entryDx=0;entryDy=0;strokeWidth=2;" parent="1" source="1jOMe3DSmXeNATYC33Cs-195" target="1jOMe3DSmXeNATYC33Cs-384" edge="1">
          <mxGeometry relative="1" as="geometry" />
        </mxCell>
        <mxCell id="1jOMe3DSmXeNATYC33Cs-195" value="" style="rounded=0;whiteSpace=wrap;html=1;fillColor=#BAF5B2;gradientColor=#BAF5B2;strokeColor=#666666;" parent="1" vertex="1">
          <mxGeometry x="-1141" y="670" width="520" height="390" as="geometry" />
        </mxCell>
        <mxCell id="1jOMe3DSmXeNATYC33Cs-235" style="edgeStyle=orthogonalEdgeStyle;rounded=0;orthogonalLoop=1;jettySize=auto;html=1;exitX=1;exitY=0.5;exitDx=0;exitDy=0;entryX=0;entryY=0.5;entryDx=0;entryDy=0;" parent="1" source="1jOMe3DSmXeNATYC33Cs-196" target="1jOMe3DSmXeNATYC33Cs-202" edge="1">
          <mxGeometry relative="1" as="geometry" />
        </mxCell>
        <mxCell id="1jOMe3DSmXeNATYC33Cs-196" value="&lt;div style=&quot;display: flex; justify-content: center; text-align: center; align-items: baseline; font-size: 0; line-height: 1.25;margin-top: -2px;&quot;&gt;&lt;span&gt;a&lt;/span&gt;&lt;/div&gt;" style="html=1;overflow=block;blockSpacing=1;whiteSpace=wrap;fontSize=13;spacing=3.8;strokeColor=#3a414a;strokeOpacity=100;rounded=1;absoluteArcSize=1;arcSize=1.5;strokeWidth=0.8;lucidId=cqyZAo~AT.8_;" parent="1" vertex="1">
          <mxGeometry x="-952.5" y="740" width="135" height="130" as="geometry" />
        </mxCell>
        <mxCell id="1jOMe3DSmXeNATYC33Cs-197" value="" style="html=1;overflow=block;blockSpacing=1;whiteSpace=wrap;fontSize=13;spacing=3.8;strokeColor=#3a414a;strokeOpacity=100;fillOpacity=100;rounded=1;absoluteArcSize=1;arcSize=1.5;fillColor=#fff3d9;strokeWidth=0.8;lucidId=sSsZeGLB3X2o;" parent="1" vertex="1">
          <mxGeometry x="-929.5" y="810" width="30" height="50" as="geometry" />
        </mxCell>
        <mxCell id="1jOMe3DSmXeNATYC33Cs-198" value="" style="html=1;overflow=block;blockSpacing=1;whiteSpace=wrap;fontSize=13;spacing=3.8;strokeColor=#3a414a;strokeOpacity=100;fillOpacity=100;rounded=1;absoluteArcSize=1;arcSize=1.5;fillColor=#fff3d9;strokeWidth=0.8;lucidId=sSsZeGLB3X2o;" parent="1" vertex="1">
          <mxGeometry x="-868.5" y="810" width="30" height="50" as="geometry" />
        </mxCell>
        <mxCell id="1jOMe3DSmXeNATYC33Cs-199" value="&lt;font style=&quot;font-size: 17px;&quot;&gt;5x Inception &lt;br&gt;resnet A&lt;/font&gt;" style="text;strokeColor=none;align=center;fillColor=none;html=1;verticalAlign=middle;whiteSpace=wrap;rounded=0;" parent="1" vertex="1">
          <mxGeometry x="-966" y="760" width="165" height="30" as="geometry" />
        </mxCell>
        <mxCell id="1jOMe3DSmXeNATYC33Cs-200" value="&lt;font style=&quot;font-size: 22px;&quot;&gt;...&lt;/font&gt;" style="text;strokeColor=none;align=center;fillColor=none;html=1;verticalAlign=middle;whiteSpace=wrap;rounded=0;" parent="1" vertex="1">
          <mxGeometry x="-915" y="820" width="60" height="30" as="geometry" />
        </mxCell>
        <mxCell id="1jOMe3DSmXeNATYC33Cs-201" style="edgeStyle=orthogonalEdgeStyle;rounded=0;orthogonalLoop=1;jettySize=auto;html=1;exitX=1;exitY=0.5;exitDx=0;exitDy=0;" parent="1" source="1jOMe3DSmXeNATYC33Cs-202" target="1jOMe3DSmXeNATYC33Cs-207" edge="1">
          <mxGeometry relative="1" as="geometry" />
        </mxCell>
        <mxCell id="1jOMe3DSmXeNATYC33Cs-202" value="&lt;div style=&quot;display: flex; justify-content: center; text-align: center; align-items: baseline; font-size: 0; line-height: 1.25;margin-top: -2px;&quot;&gt;&lt;span&gt;a&lt;/span&gt;&lt;/div&gt;" style="html=1;overflow=block;blockSpacing=1;whiteSpace=wrap;fontSize=13;spacing=3.8;strokeColor=#3a414a;strokeOpacity=100;rounded=1;absoluteArcSize=1;arcSize=1.5;strokeWidth=0.8;lucidId=cqyZAo~AT.8_;" parent="1" vertex="1">
          <mxGeometry x="-795" y="740" width="135" height="130" as="geometry" />
        </mxCell>
        <mxCell id="1jOMe3DSmXeNATYC33Cs-203" value="" style="html=1;overflow=block;blockSpacing=1;whiteSpace=wrap;fontSize=13;spacing=3.8;strokeColor=#3a414a;strokeOpacity=100;fillOpacity=100;rounded=1;absoluteArcSize=1;arcSize=1.5;fillColor=#fff3d9;strokeWidth=0.8;lucidId=sSsZeGLB3X2o;" parent="1" vertex="1">
          <mxGeometry x="-772" y="810" width="30" height="50" as="geometry" />
        </mxCell>
        <mxCell id="1jOMe3DSmXeNATYC33Cs-204" value="" style="html=1;overflow=block;blockSpacing=1;whiteSpace=wrap;fontSize=13;spacing=3.8;strokeColor=#3a414a;strokeOpacity=100;fillOpacity=100;rounded=1;absoluteArcSize=1;arcSize=1.5;fillColor=#fff3d9;strokeWidth=0.8;lucidId=sSsZeGLB3X2o;" parent="1" vertex="1">
          <mxGeometry x="-711" y="810" width="30" height="50" as="geometry" />
        </mxCell>
        <mxCell id="1jOMe3DSmXeNATYC33Cs-205" value="&lt;span style=&quot;font-size: 17px;&quot;&gt;Reduction A&lt;/span&gt;" style="text;strokeColor=none;align=center;fillColor=none;html=1;verticalAlign=middle;whiteSpace=wrap;rounded=0;" parent="1" vertex="1">
          <mxGeometry x="-808.5" y="760" width="165" height="30" as="geometry" />
        </mxCell>
        <mxCell id="1jOMe3DSmXeNATYC33Cs-206" value="&lt;font style=&quot;font-size: 22px;&quot;&gt;...&lt;/font&gt;" style="text;strokeColor=none;align=center;fillColor=none;html=1;verticalAlign=middle;whiteSpace=wrap;rounded=0;" parent="1" vertex="1">
          <mxGeometry x="-757.5" y="820" width="60" height="30" as="geometry" />
        </mxCell>
        <mxCell id="1jOMe3DSmXeNATYC33Cs-236" style="edgeStyle=orthogonalEdgeStyle;rounded=0;orthogonalLoop=1;jettySize=auto;html=1;exitX=1;exitY=0.5;exitDx=0;exitDy=0;entryX=0;entryY=0.5;entryDx=0;entryDy=0;" parent="1" source="1jOMe3DSmXeNATYC33Cs-207" target="1jOMe3DSmXeNATYC33Cs-212" edge="1">
          <mxGeometry relative="1" as="geometry" />
        </mxCell>
        <mxCell id="1jOMe3DSmXeNATYC33Cs-207" value="&lt;div style=&quot;display: flex; justify-content: center; text-align: center; align-items: baseline; font-size: 0; line-height: 1.25;margin-top: -2px;&quot;&gt;&lt;span&gt;a&lt;/span&gt;&lt;/div&gt;" style="html=1;overflow=block;blockSpacing=1;whiteSpace=wrap;fontSize=13;spacing=3.8;strokeColor=#3a414a;strokeOpacity=100;rounded=1;absoluteArcSize=1;arcSize=1.5;strokeWidth=0.8;lucidId=cqyZAo~AT.8_;" parent="1" vertex="1">
          <mxGeometry x="-1107.5" y="910" width="135" height="130" as="geometry" />
        </mxCell>
        <mxCell id="1jOMe3DSmXeNATYC33Cs-208" value="" style="html=1;overflow=block;blockSpacing=1;whiteSpace=wrap;fontSize=13;spacing=3.8;strokeColor=#3a414a;strokeOpacity=100;fillOpacity=100;rounded=1;absoluteArcSize=1;arcSize=1.5;fillColor=#fff3d9;strokeWidth=0.8;lucidId=sSsZeGLB3X2o;" parent="1" vertex="1">
          <mxGeometry x="-1084.5" y="980" width="30" height="50" as="geometry" />
        </mxCell>
        <mxCell id="1jOMe3DSmXeNATYC33Cs-209" value="" style="html=1;overflow=block;blockSpacing=1;whiteSpace=wrap;fontSize=13;spacing=3.8;strokeColor=#3a414a;strokeOpacity=100;fillOpacity=100;rounded=1;absoluteArcSize=1;arcSize=1.5;fillColor=#fff3d9;strokeWidth=0.8;lucidId=sSsZeGLB3X2o;" parent="1" vertex="1">
          <mxGeometry x="-1023.5" y="980" width="30" height="50" as="geometry" />
        </mxCell>
        <mxCell id="1jOMe3DSmXeNATYC33Cs-210" value="&lt;span style=&quot;font-size: 17px;&quot;&gt;10x Inception&lt;br&gt;resnet B&lt;br&gt;&lt;/span&gt;" style="text;strokeColor=none;align=center;fillColor=none;html=1;verticalAlign=middle;whiteSpace=wrap;rounded=0;" parent="1" vertex="1">
          <mxGeometry x="-1121" y="930" width="165" height="30" as="geometry" />
        </mxCell>
        <mxCell id="1jOMe3DSmXeNATYC33Cs-211" value="&lt;font style=&quot;font-size: 22px;&quot;&gt;...&lt;/font&gt;" style="text;strokeColor=none;align=center;fillColor=none;html=1;verticalAlign=middle;whiteSpace=wrap;rounded=0;" parent="1" vertex="1">
          <mxGeometry x="-1070" y="990" width="60" height="30" as="geometry" />
        </mxCell>
        <mxCell id="1jOMe3DSmXeNATYC33Cs-237" style="edgeStyle=orthogonalEdgeStyle;rounded=0;orthogonalLoop=1;jettySize=auto;html=1;exitX=1;exitY=0.5;exitDx=0;exitDy=0;entryX=0;entryY=0.5;entryDx=0;entryDy=0;" parent="1" source="1jOMe3DSmXeNATYC33Cs-212" target="1jOMe3DSmXeNATYC33Cs-217" edge="1">
          <mxGeometry relative="1" as="geometry" />
        </mxCell>
        <mxCell id="1jOMe3DSmXeNATYC33Cs-212" value="&lt;div style=&quot;display: flex; justify-content: center; text-align: center; align-items: baseline; font-size: 0; line-height: 1.25;margin-top: -2px;&quot;&gt;&lt;span&gt;a&lt;/span&gt;&lt;/div&gt;" style="html=1;overflow=block;blockSpacing=1;whiteSpace=wrap;fontSize=13;spacing=3.8;strokeColor=#3a414a;strokeOpacity=100;rounded=1;absoluteArcSize=1;arcSize=1.5;strokeWidth=0.8;lucidId=cqyZAo~AT.8_;" parent="1" vertex="1">
          <mxGeometry x="-952.5" y="910" width="135" height="130" as="geometry" />
        </mxCell>
        <mxCell id="1jOMe3DSmXeNATYC33Cs-213" value="" style="html=1;overflow=block;blockSpacing=1;whiteSpace=wrap;fontSize=13;spacing=3.8;strokeColor=#3a414a;strokeOpacity=100;fillOpacity=100;rounded=1;absoluteArcSize=1;arcSize=1.5;fillColor=#fff3d9;strokeWidth=0.8;lucidId=sSsZeGLB3X2o;" parent="1" vertex="1">
          <mxGeometry x="-929.5" y="980" width="30" height="50" as="geometry" />
        </mxCell>
        <mxCell id="1jOMe3DSmXeNATYC33Cs-214" value="" style="html=1;overflow=block;blockSpacing=1;whiteSpace=wrap;fontSize=13;spacing=3.8;strokeColor=#3a414a;strokeOpacity=100;fillOpacity=100;rounded=1;absoluteArcSize=1;arcSize=1.5;fillColor=#fff3d9;strokeWidth=0.8;lucidId=sSsZeGLB3X2o;" parent="1" vertex="1">
          <mxGeometry x="-868.5" y="980" width="30" height="50" as="geometry" />
        </mxCell>
        <mxCell id="1jOMe3DSmXeNATYC33Cs-215" value="&lt;span style=&quot;font-size: 17px;&quot;&gt;Reduction B&lt;/span&gt;" style="text;strokeColor=none;align=center;fillColor=none;html=1;verticalAlign=middle;whiteSpace=wrap;rounded=0;" parent="1" vertex="1">
          <mxGeometry x="-966" y="930" width="165" height="30" as="geometry" />
        </mxCell>
        <mxCell id="1jOMe3DSmXeNATYC33Cs-216" value="&lt;font style=&quot;font-size: 22px;&quot;&gt;...&lt;/font&gt;" style="text;strokeColor=none;align=center;fillColor=none;html=1;verticalAlign=middle;whiteSpace=wrap;rounded=0;" parent="1" vertex="1">
          <mxGeometry x="-915" y="990" width="60" height="30" as="geometry" />
        </mxCell>
        <mxCell id="1jOMe3DSmXeNATYC33Cs-217" value="&lt;div style=&quot;display: flex; justify-content: center; text-align: center; align-items: baseline; font-size: 0; line-height: 1.25;margin-top: -2px;&quot;&gt;&lt;span&gt;a&lt;/span&gt;&lt;/div&gt;" style="html=1;overflow=block;blockSpacing=1;whiteSpace=wrap;fontSize=13;spacing=3.8;strokeColor=#3a414a;strokeOpacity=100;rounded=1;absoluteArcSize=1;arcSize=1.5;strokeWidth=0.8;lucidId=cqyZAo~AT.8_;" parent="1" vertex="1">
          <mxGeometry x="-796.5" y="910" width="135" height="130" as="geometry" />
        </mxCell>
        <mxCell id="1jOMe3DSmXeNATYC33Cs-218" value="" style="html=1;overflow=block;blockSpacing=1;whiteSpace=wrap;fontSize=13;spacing=3.8;strokeColor=#3a414a;strokeOpacity=100;fillOpacity=100;rounded=1;absoluteArcSize=1;arcSize=1.5;fillColor=#fff3d9;strokeWidth=0.8;lucidId=sSsZeGLB3X2o;" parent="1" vertex="1">
          <mxGeometry x="-773.5" y="980" width="30" height="50" as="geometry" />
        </mxCell>
        <mxCell id="1jOMe3DSmXeNATYC33Cs-219" value="" style="html=1;overflow=block;blockSpacing=1;whiteSpace=wrap;fontSize=13;spacing=3.8;strokeColor=#3a414a;strokeOpacity=100;fillOpacity=100;rounded=1;absoluteArcSize=1;arcSize=1.5;fillColor=#fff3d9;strokeWidth=0.8;lucidId=sSsZeGLB3X2o;" parent="1" vertex="1">
          <mxGeometry x="-712.5" y="980" width="30" height="50" as="geometry" />
        </mxCell>
        <mxCell id="1jOMe3DSmXeNATYC33Cs-220" value="&lt;span style=&quot;font-size: 17px;&quot;&gt;5x Inception&lt;br&gt;resnet C&lt;br&gt;&lt;/span&gt;" style="text;strokeColor=none;align=center;fillColor=none;html=1;verticalAlign=middle;whiteSpace=wrap;rounded=0;" parent="1" vertex="1">
          <mxGeometry x="-810" y="930" width="165" height="30" as="geometry" />
        </mxCell>
        <mxCell id="1jOMe3DSmXeNATYC33Cs-221" value="&lt;font style=&quot;font-size: 22px;&quot;&gt;...&lt;/font&gt;" style="text;strokeColor=none;align=center;fillColor=none;html=1;verticalAlign=middle;whiteSpace=wrap;rounded=0;" parent="1" vertex="1">
          <mxGeometry x="-759" y="990" width="60" height="30" as="geometry" />
        </mxCell>
        <mxCell id="1jOMe3DSmXeNATYC33Cs-234" style="edgeStyle=orthogonalEdgeStyle;rounded=0;orthogonalLoop=1;jettySize=auto;html=1;exitX=1;exitY=0.5;exitDx=0;exitDy=0;" parent="1" source="1jOMe3DSmXeNATYC33Cs-222" target="1jOMe3DSmXeNATYC33Cs-196" edge="1">
          <mxGeometry relative="1" as="geometry" />
        </mxCell>
        <mxCell id="1jOMe3DSmXeNATYC33Cs-222" value="&lt;div style=&quot;display: flex; justify-content: center; text-align: center; align-items: baseline; font-size: 0; line-height: 1.25;margin-top: -2px;&quot;&gt;&lt;span&gt;a&lt;/span&gt;&lt;/div&gt;" style="html=1;overflow=block;blockSpacing=1;whiteSpace=wrap;fontSize=13;spacing=3.8;strokeColor=#3a414a;strokeOpacity=100;rounded=1;absoluteArcSize=1;arcSize=1.5;strokeWidth=0.8;lucidId=cqyZAo~AT.8_;" parent="1" vertex="1">
          <mxGeometry x="-1107.5" y="740" width="135" height="130" as="geometry" />
        </mxCell>
        <mxCell id="1jOMe3DSmXeNATYC33Cs-223" value="" style="html=1;overflow=block;blockSpacing=1;whiteSpace=wrap;fontSize=13;spacing=3.8;strokeColor=#3a414a;strokeOpacity=100;fillOpacity=100;rounded=1;absoluteArcSize=1;arcSize=1.5;fillColor=#fff3d9;strokeWidth=0.8;lucidId=sSsZeGLB3X2o;" parent="1" vertex="1">
          <mxGeometry x="-1084.5" y="810" width="30" height="50" as="geometry" />
        </mxCell>
        <mxCell id="1jOMe3DSmXeNATYC33Cs-224" value="" style="html=1;overflow=block;blockSpacing=1;whiteSpace=wrap;fontSize=13;spacing=3.8;strokeColor=#3a414a;strokeOpacity=100;fillOpacity=100;rounded=1;absoluteArcSize=1;arcSize=1.5;fillColor=#fff3d9;strokeWidth=0.8;lucidId=sSsZeGLB3X2o;" parent="1" vertex="1">
          <mxGeometry x="-1023.5" y="810" width="30" height="50" as="geometry" />
        </mxCell>
        <mxCell id="1jOMe3DSmXeNATYC33Cs-225" value="&lt;span style=&quot;font-size: 17px;&quot;&gt;Stem&lt;/span&gt;" style="text;strokeColor=none;align=center;fillColor=none;html=1;verticalAlign=middle;whiteSpace=wrap;rounded=0;" parent="1" vertex="1">
          <mxGeometry x="-1121" y="760" width="165" height="30" as="geometry" />
        </mxCell>
        <mxCell id="1jOMe3DSmXeNATYC33Cs-226" value="&lt;font style=&quot;font-size: 22px;&quot;&gt;...&lt;/font&gt;" style="text;strokeColor=none;align=center;fillColor=none;html=1;verticalAlign=middle;whiteSpace=wrap;rounded=0;" parent="1" vertex="1">
          <mxGeometry x="-1070" y="820" width="60" height="30" as="geometry" />
        </mxCell>
        <mxCell id="1jOMe3DSmXeNATYC33Cs-324" style="edgeStyle=orthogonalEdgeStyle;rounded=0;orthogonalLoop=1;jettySize=auto;html=1;exitX=1;exitY=0.5;exitDx=0;exitDy=0;" parent="1" edge="1">
          <mxGeometry relative="1" as="geometry">
            <mxPoint x="-470.6100000000001" y="425" as="sourcePoint" />
            <Array as="points">
              <mxPoint x="-460" y="425" />
              <mxPoint x="-460" y="490" />
              <mxPoint x="-845" y="490" />
            </Array>
          </mxGeometry>
        </mxCell>
        <mxCell id="1jOMe3DSmXeNATYC33Cs-388" style="edgeStyle=orthogonalEdgeStyle;rounded=0;orthogonalLoop=1;jettySize=auto;html=1;exitX=0.5;exitY=0;exitDx=0;exitDy=0;entryX=0.49;entryY=1.03;entryDx=0;entryDy=0;entryPerimeter=0;strokeWidth=2;" parent="1" source="1jOMe3DSmXeNATYC33Cs-325" target="1jOMe3DSmXeNATYC33Cs-385" edge="1">
          <mxGeometry relative="1" as="geometry" />
        </mxCell>
        <mxCell id="1jOMe3DSmXeNATYC33Cs-325" value="" style="rounded=0;whiteSpace=wrap;html=1;fillColor=#cce5ff;strokeColor=#36393d;" parent="1" vertex="1">
          <mxGeometry x="-601" y="670" width="520" height="390" as="geometry" />
        </mxCell>
        <mxCell id="1jOMe3DSmXeNATYC33Cs-326" style="edgeStyle=orthogonalEdgeStyle;rounded=0;orthogonalLoop=1;jettySize=auto;html=1;exitX=1;exitY=0.5;exitDx=0;exitDy=0;" parent="1" source="1jOMe3DSmXeNATYC33Cs-327" edge="1">
          <mxGeometry relative="1" as="geometry">
            <mxPoint x="-530.19" y="835" as="targetPoint" />
          </mxGeometry>
        </mxCell>
        <mxCell id="1jOMe3DSmXeNATYC33Cs-327" value="" style="html=1;overflow=block;blockSpacing=1;whiteSpace=wrap;fontSize=13;spacing=3.8;strokeColor=#3a414a;strokeOpacity=100;fillOpacity=100;rounded=1;absoluteArcSize=1;arcSize=1.5;fillColor=#fff3d9;strokeWidth=0.8;lucidId=sSsZeGLB3X2o;" parent="1" vertex="1">
          <mxGeometry x="-586.19" y="810" width="30" height="50" as="geometry" />
        </mxCell>
        <mxCell id="1jOMe3DSmXeNATYC33Cs-434" style="edgeStyle=orthogonalEdgeStyle;rounded=0;orthogonalLoop=1;jettySize=auto;html=1;exitX=1;exitY=0.5;exitDx=0;exitDy=0;entryX=0.425;entryY=0.428;entryDx=0;entryDy=0;entryPerimeter=0;" parent="1" source="1jOMe3DSmXeNATYC33Cs-329" target="1jOMe3DSmXeNATYC33Cs-325" edge="1">
          <mxGeometry relative="1" as="geometry" />
        </mxCell>
        <mxCell id="1jOMe3DSmXeNATYC33Cs-329" value="" style="html=1;overflow=block;blockSpacing=1;whiteSpace=wrap;fontSize=13;spacing=3.8;strokeColor=#3a414a;strokeOpacity=100;rounded=1;absoluteArcSize=1;arcSize=1.5;strokeWidth=0.8;lucidId=LSsZ9SuB0HA0;" parent="1" vertex="1">
          <mxGeometry x="-531.5799999999999" y="784" width="132.39" height="106" as="geometry" />
        </mxCell>
        <mxCell id="1jOMe3DSmXeNATYC33Cs-330" value="" style="html=1;overflow=block;blockSpacing=1;whiteSpace=wrap;fontSize=13;spacing=3.8;strokeColor=#3a414a;strokeOpacity=100;fillOpacity=100;rounded=1;absoluteArcSize=1;arcSize=1.5;fillColor=#fff3d9;strokeWidth=0.8;lucidId=sSsZeGLB3X2o;" parent="1" vertex="1">
          <mxGeometry x="-519.19" y="831.5" width="30" height="50" as="geometry" />
        </mxCell>
        <mxCell id="1jOMe3DSmXeNATYC33Cs-331" style="edgeStyle=orthogonalEdgeStyle;rounded=0;orthogonalLoop=1;jettySize=auto;html=1;exitX=1;exitY=0.5;exitDx=0;exitDy=0;entryX=0;entryY=0.5;entryDx=0;entryDy=0;" parent="1" source="1jOMe3DSmXeNATYC33Cs-332" target="1jOMe3DSmXeNATYC33Cs-338" edge="1">
          <mxGeometry relative="1" as="geometry">
            <Array as="points">
              <mxPoint x="-300.19000000000005" y="835" />
            </Array>
          </mxGeometry>
        </mxCell>
        <mxCell id="1jOMe3DSmXeNATYC33Cs-332" value="" style="html=1;overflow=block;blockSpacing=1;whiteSpace=wrap;fontSize=13;spacing=3.8;strokeColor=#3a414a;strokeOpacity=100;fillOpacity=100;rounded=1;absoluteArcSize=1;arcSize=1.5;fillColor=#d7faf5;strokeWidth=0.8;lucidId=dSsZKM5ELoIu;" parent="1" vertex="1">
          <mxGeometry x="-349.19000000000005" y="810" width="30" height="50" as="geometry" />
        </mxCell>
        <mxCell id="1jOMe3DSmXeNATYC33Cs-333" value="" style="html=1;overflow=block;blockSpacing=1;whiteSpace=wrap;fontSize=13;spacing=3.8;strokeColor=#3a414a;strokeOpacity=100;fillOpacity=100;rounded=1;absoluteArcSize=1;arcSize=1.5;fillColor=#fff3d9;strokeWidth=0.8;lucidId=sSsZeGLB3X2o;" parent="1" vertex="1">
          <mxGeometry x="-379.19000000000005" y="810" width="30" height="50" as="geometry" />
        </mxCell>
        <mxCell id="1jOMe3DSmXeNATYC33Cs-334" value="&lt;font style=&quot;font-size: 17px;&quot;&gt;Dense Block 1&lt;/font&gt;" style="text;strokeColor=none;align=center;fillColor=none;html=1;verticalAlign=middle;whiteSpace=wrap;rounded=0;" parent="1" vertex="1">
          <mxGeometry x="-525.19" y="797" width="120" height="30" as="geometry" />
        </mxCell>
        <mxCell id="1jOMe3DSmXeNATYC33Cs-335" value="&lt;font style=&quot;font-size: 15px;&quot;&gt;x6&lt;/font&gt;" style="text;strokeColor=none;align=center;fillColor=none;html=1;verticalAlign=middle;whiteSpace=wrap;rounded=0;" parent="1" vertex="1">
          <mxGeometry x="-459.19000000000005" y="842" width="60" height="30" as="geometry" />
        </mxCell>
        <mxCell id="1jOMe3DSmXeNATYC33Cs-336" value="" style="html=1;overflow=block;blockSpacing=1;whiteSpace=wrap;fontSize=13;spacing=3.8;strokeColor=#3a414a;strokeOpacity=100;fillOpacity=100;rounded=1;absoluteArcSize=1;arcSize=1.5;fillColor=#fff3d9;strokeWidth=0.8;lucidId=sSsZeGLB3X2o;" parent="1" vertex="1">
          <mxGeometry x="-489.19000000000005" y="831.5" width="30" height="50" as="geometry" />
        </mxCell>
        <mxCell id="6UCd8rIWywd2zae_jVOX-2" style="edgeStyle=orthogonalEdgeStyle;rounded=0;orthogonalLoop=1;jettySize=auto;html=1;exitX=1;exitY=0.5;exitDx=0;exitDy=0;entryX=0;entryY=0.5;entryDx=0;entryDy=0;" parent="1" source="1jOMe3DSmXeNATYC33Cs-338" target="1jOMe3DSmXeNATYC33Cs-341" edge="1">
          <mxGeometry relative="1" as="geometry" />
        </mxCell>
        <mxCell id="1jOMe3DSmXeNATYC33Cs-338" value="" style="html=1;overflow=block;blockSpacing=1;whiteSpace=wrap;fontSize=13;spacing=3.8;strokeColor=#3a414a;strokeOpacity=100;rounded=1;absoluteArcSize=1;arcSize=1.5;strokeWidth=0.8;lucidId=LSsZ9SuB0HA0;" parent="1" vertex="1">
          <mxGeometry x="-299.99" y="783" width="132.39" height="106" as="geometry" />
        </mxCell>
        <mxCell id="1jOMe3DSmXeNATYC33Cs-339" value="" style="html=1;overflow=block;blockSpacing=1;whiteSpace=wrap;fontSize=13;spacing=3.8;strokeColor=#3a414a;strokeOpacity=100;fillOpacity=100;rounded=1;absoluteArcSize=1;arcSize=1.5;fillColor=#fff3d9;strokeWidth=0.8;lucidId=sSsZeGLB3X2o;" parent="1" vertex="1">
          <mxGeometry x="-287.60000000000014" y="831.5" width="30" height="50" as="geometry" />
        </mxCell>
        <mxCell id="6UCd8rIWywd2zae_jVOX-3" style="edgeStyle=orthogonalEdgeStyle;rounded=0;orthogonalLoop=1;jettySize=auto;html=1;exitX=0.5;exitY=1;exitDx=0;exitDy=0;entryX=0.5;entryY=0;entryDx=0;entryDy=0;" parent="1" source="1jOMe3DSmXeNATYC33Cs-340" target="1jOMe3DSmXeNATYC33Cs-346" edge="1">
          <mxGeometry relative="1" as="geometry">
            <Array as="points">
              <mxPoint x="-105" y="910" />
              <mxPoint x="-465" y="910" />
            </Array>
          </mxGeometry>
        </mxCell>
        <mxCell id="1jOMe3DSmXeNATYC33Cs-340" value="" style="html=1;overflow=block;blockSpacing=1;whiteSpace=wrap;fontSize=13;spacing=3.8;strokeColor=#3a414a;strokeOpacity=100;fillOpacity=100;rounded=1;absoluteArcSize=1;arcSize=1.5;fillColor=#d7faf5;strokeWidth=0.8;lucidId=dSsZKM5ELoIu;" parent="1" vertex="1">
          <mxGeometry x="-119.99999999999996" y="811" width="30" height="50" as="geometry" />
        </mxCell>
        <mxCell id="1jOMe3DSmXeNATYC33Cs-341" value="" style="html=1;overflow=block;blockSpacing=1;whiteSpace=wrap;fontSize=13;spacing=3.8;strokeColor=#3a414a;strokeOpacity=100;fillOpacity=100;rounded=1;absoluteArcSize=1;arcSize=1.5;fillColor=#fff3d9;strokeWidth=0.8;lucidId=sSsZeGLB3X2o;" parent="1" vertex="1">
          <mxGeometry x="-149.99999999999994" y="811" width="30" height="50" as="geometry" />
        </mxCell>
        <mxCell id="1jOMe3DSmXeNATYC33Cs-342" value="&lt;font style=&quot;font-size: 17px;&quot;&gt;Dense Block 2&lt;/font&gt;" style="text;strokeColor=none;align=center;fillColor=none;html=1;verticalAlign=middle;whiteSpace=wrap;rounded=0;" parent="1" vertex="1">
          <mxGeometry x="-293.60000000000014" y="797" width="120" height="30" as="geometry" />
        </mxCell>
        <mxCell id="1jOMe3DSmXeNATYC33Cs-343" value="&lt;font style=&quot;font-size: 15px;&quot;&gt;x12&lt;/font&gt;" style="text;strokeColor=none;align=center;fillColor=none;html=1;verticalAlign=middle;whiteSpace=wrap;rounded=0;" parent="1" vertex="1">
          <mxGeometry x="-227.60000000000014" y="842" width="60" height="30" as="geometry" />
        </mxCell>
        <mxCell id="1jOMe3DSmXeNATYC33Cs-344" value="" style="html=1;overflow=block;blockSpacing=1;whiteSpace=wrap;fontSize=13;spacing=3.8;strokeColor=#3a414a;strokeOpacity=100;fillOpacity=100;rounded=1;absoluteArcSize=1;arcSize=1.5;fillColor=#fff3d9;strokeWidth=0.8;lucidId=sSsZeGLB3X2o;" parent="1" vertex="1">
          <mxGeometry x="-257.60000000000014" y="831.5" width="30" height="50" as="geometry" />
        </mxCell>
        <mxCell id="1jOMe3DSmXeNATYC33Cs-346" value="" style="html=1;overflow=block;blockSpacing=1;whiteSpace=wrap;fontSize=13;spacing=3.8;strokeColor=#3a414a;strokeOpacity=100;rounded=1;absoluteArcSize=1;arcSize=1.5;strokeWidth=0.8;lucidId=LSsZ9SuB0HA0;" parent="1" vertex="1">
          <mxGeometry x="-531.5799999999999" y="932" width="132.39" height="106" as="geometry" />
        </mxCell>
        <mxCell id="1jOMe3DSmXeNATYC33Cs-347" value="" style="html=1;overflow=block;blockSpacing=1;whiteSpace=wrap;fontSize=13;spacing=3.8;strokeColor=#3a414a;strokeOpacity=100;fillOpacity=100;rounded=1;absoluteArcSize=1;arcSize=1.5;fillColor=#fff3d9;strokeWidth=0.8;lucidId=sSsZeGLB3X2o;" parent="1" vertex="1">
          <mxGeometry x="-519.19" y="979.5" width="30" height="50" as="geometry" />
        </mxCell>
        <mxCell id="1jOMe3DSmXeNATYC33Cs-433" style="edgeStyle=orthogonalEdgeStyle;rounded=0;orthogonalLoop=1;jettySize=auto;html=1;exitX=1;exitY=0.5;exitDx=0;exitDy=0;entryX=-0.011;entryY=0.49;entryDx=0;entryDy=0;entryPerimeter=0;" parent="1" source="1jOMe3DSmXeNATYC33Cs-349" target="1jOMe3DSmXeNATYC33Cs-354" edge="1">
          <mxGeometry relative="1" as="geometry" />
        </mxCell>
        <mxCell id="1jOMe3DSmXeNATYC33Cs-349" value="" style="html=1;overflow=block;blockSpacing=1;whiteSpace=wrap;fontSize=13;spacing=3.8;strokeColor=#3a414a;strokeOpacity=100;fillOpacity=100;rounded=1;absoluteArcSize=1;arcSize=1.5;fillColor=#d7faf5;strokeWidth=0.8;lucidId=dSsZKM5ELoIu;" parent="1" vertex="1">
          <mxGeometry x="-349.19000000000005" y="958" width="30" height="50" as="geometry" />
        </mxCell>
        <mxCell id="1jOMe3DSmXeNATYC33Cs-350" value="" style="html=1;overflow=block;blockSpacing=1;whiteSpace=wrap;fontSize=13;spacing=3.8;strokeColor=#3a414a;strokeOpacity=100;fillOpacity=100;rounded=1;absoluteArcSize=1;arcSize=1.5;fillColor=#fff3d9;strokeWidth=0.8;lucidId=sSsZeGLB3X2o;" parent="1" vertex="1">
          <mxGeometry x="-379.19000000000005" y="958" width="30" height="50" as="geometry" />
        </mxCell>
        <mxCell id="1jOMe3DSmXeNATYC33Cs-351" value="&lt;font style=&quot;font-size: 17px;&quot;&gt;Dense Block 3&lt;/font&gt;" style="text;strokeColor=none;align=center;fillColor=none;html=1;verticalAlign=middle;whiteSpace=wrap;rounded=0;" parent="1" vertex="1">
          <mxGeometry x="-525.19" y="945" width="120" height="30" as="geometry" />
        </mxCell>
        <mxCell id="1jOMe3DSmXeNATYC33Cs-432" style="edgeStyle=orthogonalEdgeStyle;rounded=0;orthogonalLoop=1;jettySize=auto;html=1;exitX=1;exitY=0;exitDx=0;exitDy=0;entryX=-0.02;entryY=0.633;entryDx=0;entryDy=0;entryPerimeter=0;" parent="1" source="1jOMe3DSmXeNATYC33Cs-352" target="1jOMe3DSmXeNATYC33Cs-350" edge="1">
          <mxGeometry relative="1" as="geometry" />
        </mxCell>
        <mxCell id="1jOMe3DSmXeNATYC33Cs-352" value="&lt;font style=&quot;font-size: 15px;&quot;&gt;x24&lt;/font&gt;" style="text;strokeColor=none;align=center;fillColor=none;html=1;verticalAlign=middle;whiteSpace=wrap;rounded=0;" parent="1" vertex="1">
          <mxGeometry x="-459.19000000000005" y="990" width="60" height="30" as="geometry" />
        </mxCell>
        <mxCell id="1jOMe3DSmXeNATYC33Cs-353" value="" style="html=1;overflow=block;blockSpacing=1;whiteSpace=wrap;fontSize=13;spacing=3.8;strokeColor=#3a414a;strokeOpacity=100;fillOpacity=100;rounded=1;absoluteArcSize=1;arcSize=1.5;fillColor=#fff3d9;strokeWidth=0.8;lucidId=sSsZeGLB3X2o;" parent="1" vertex="1">
          <mxGeometry x="-489.19000000000005" y="979.5" width="30" height="50" as="geometry" />
        </mxCell>
        <mxCell id="1jOMe3DSmXeNATYC33Cs-354" value="" style="html=1;overflow=block;blockSpacing=1;whiteSpace=wrap;fontSize=13;spacing=3.8;strokeColor=#3a414a;strokeOpacity=100;rounded=1;absoluteArcSize=1;arcSize=1.5;strokeWidth=0.8;lucidId=LSsZ9SuB0HA0;" parent="1" vertex="1">
          <mxGeometry x="-299.99" y="932" width="132.39" height="106" as="geometry" />
        </mxCell>
        <mxCell id="1jOMe3DSmXeNATYC33Cs-355" value="" style="html=1;overflow=block;blockSpacing=1;whiteSpace=wrap;fontSize=13;spacing=3.8;strokeColor=#3a414a;strokeOpacity=100;fillOpacity=100;rounded=1;absoluteArcSize=1;arcSize=1.5;fillColor=#fff3d9;strokeWidth=0.8;lucidId=sSsZeGLB3X2o;" parent="1" vertex="1">
          <mxGeometry x="-287.60000000000014" y="979.5" width="30" height="50" as="geometry" />
        </mxCell>
        <mxCell id="1jOMe3DSmXeNATYC33Cs-356" value="&lt;font style=&quot;font-size: 17px;&quot;&gt;Dense Block 4&lt;/font&gt;" style="text;strokeColor=none;align=center;fillColor=none;html=1;verticalAlign=middle;whiteSpace=wrap;rounded=0;" parent="1" vertex="1">
          <mxGeometry x="-293.60000000000014" y="945" width="120" height="30" as="geometry" />
        </mxCell>
        <mxCell id="1jOMe3DSmXeNATYC33Cs-357" value="&lt;font style=&quot;font-size: 15px;&quot;&gt;x16&lt;/font&gt;" style="text;strokeColor=none;align=center;fillColor=none;html=1;verticalAlign=middle;whiteSpace=wrap;rounded=0;" parent="1" vertex="1">
          <mxGeometry x="-227.60000000000014" y="990" width="60" height="30" as="geometry" />
        </mxCell>
        <mxCell id="1jOMe3DSmXeNATYC33Cs-358" value="" style="html=1;overflow=block;blockSpacing=1;whiteSpace=wrap;fontSize=13;spacing=3.8;strokeColor=#3a414a;strokeOpacity=100;fillOpacity=100;rounded=1;absoluteArcSize=1;arcSize=1.5;fillColor=#fff3d9;strokeWidth=0.8;lucidId=sSsZeGLB3X2o;" parent="1" vertex="1">
          <mxGeometry x="-257.60000000000014" y="979.5" width="30" height="50" as="geometry" />
        </mxCell>
        <mxCell id="1jOMe3DSmXeNATYC33Cs-389" style="edgeStyle=orthogonalEdgeStyle;rounded=0;orthogonalLoop=1;jettySize=auto;html=1;exitX=0.5;exitY=0;exitDx=0;exitDy=0;entryX=0.5;entryY=1;entryDx=0;entryDy=0;strokeWidth=2;" parent="1" source="1jOMe3DSmXeNATYC33Cs-360" target="1jOMe3DSmXeNATYC33Cs-386" edge="1">
          <mxGeometry relative="1" as="geometry" />
        </mxCell>
        <mxCell id="1jOMe3DSmXeNATYC33Cs-360" value="" style="rounded=0;whiteSpace=wrap;html=1;fillColor=#E4DCF7;" parent="1" vertex="1">
          <mxGeometry x="-60" y="670" width="280" height="390" as="geometry" />
        </mxCell>
        <mxCell id="1jOMe3DSmXeNATYC33Cs-361" value="" style="html=1;overflow=block;blockSpacing=1;whiteSpace=wrap;fontSize=13;spacing=3.8;strokeColor=#3a414a;strokeOpacity=100;fillOpacity=100;rounded=1;absoluteArcSize=1;arcSize=1.5;fillColor=#fff3d9;strokeWidth=0.8;lucidId=sSsZeGLB3X2o;" parent="1" vertex="1">
          <mxGeometry x="88" y="770" width="30" height="50" as="geometry" />
        </mxCell>
        <mxCell id="1jOMe3DSmXeNATYC33Cs-362" value="" style="html=1;overflow=block;blockSpacing=1;whiteSpace=wrap;fontSize=13;spacing=3.8;strokeColor=#3a414a;strokeOpacity=100;fillOpacity=100;rounded=1;absoluteArcSize=1;arcSize=1.5;fillColor=#fff3d9;strokeWidth=0.8;lucidId=sSsZeGLB3X2o;" parent="1" vertex="1">
          <mxGeometry x="118" y="770" width="30" height="50" as="geometry" />
        </mxCell>
        <mxCell id="1jOMe3DSmXeNATYC33Cs-363" value="" style="html=1;overflow=block;blockSpacing=1;whiteSpace=wrap;fontSize=13;spacing=3.8;strokeColor=#3a414a;strokeOpacity=100;fillOpacity=100;rounded=1;absoluteArcSize=1;arcSize=1.5;fillColor=#d7faf5;strokeWidth=0.8;lucidId=dSsZKM5ELoIu;" parent="1" vertex="1">
          <mxGeometry x="178.5" y="770" width="30" height="50" as="geometry" />
        </mxCell>
        <mxCell id="1jOMe3DSmXeNATYC33Cs-364" value="" style="html=1;overflow=block;blockSpacing=1;whiteSpace=wrap;fontSize=13;spacing=3.8;strokeColor=#3a414a;strokeOpacity=100;fillOpacity=100;rounded=1;absoluteArcSize=1;arcSize=1.5;fillColor=#fff3d9;strokeWidth=0.8;lucidId=sSsZeGLB3X2o;" parent="1" vertex="1">
          <mxGeometry x="148" y="770" width="30" height="50" as="geometry" />
        </mxCell>
        <mxCell id="1jOMe3DSmXeNATYC33Cs-365" value="" style="html=1;overflow=block;blockSpacing=1;whiteSpace=wrap;fontSize=13;spacing=3.8;strokeColor=#3a414a;strokeOpacity=100;fillOpacity=100;rounded=1;absoluteArcSize=1;arcSize=1.5;fillColor=#fff3d9;strokeWidth=0.8;lucidId=sSsZeGLB3X2o;" parent="1" vertex="1">
          <mxGeometry x="88" y="850" width="30" height="50" as="geometry" />
        </mxCell>
        <mxCell id="1jOMe3DSmXeNATYC33Cs-366" value="" style="html=1;overflow=block;blockSpacing=1;whiteSpace=wrap;fontSize=13;spacing=3.8;strokeColor=#3a414a;strokeOpacity=100;fillOpacity=100;rounded=1;absoluteArcSize=1;arcSize=1.5;fillColor=#fff3d9;strokeWidth=0.8;lucidId=sSsZeGLB3X2o;" parent="1" vertex="1">
          <mxGeometry x="118" y="850" width="30" height="50" as="geometry" />
        </mxCell>
        <mxCell id="1jOMe3DSmXeNATYC33Cs-451" style="edgeStyle=orthogonalEdgeStyle;rounded=0;orthogonalLoop=1;jettySize=auto;html=1;exitX=0.5;exitY=0;exitDx=0;exitDy=0;entryX=0.5;entryY=1;entryDx=0;entryDy=0;" parent="1" source="1jOMe3DSmXeNATYC33Cs-367" target="1jOMe3DSmXeNATYC33Cs-361" edge="1">
          <mxGeometry relative="1" as="geometry">
            <Array as="points">
              <mxPoint x="194" y="840" />
              <mxPoint x="103" y="840" />
            </Array>
          </mxGeometry>
        </mxCell>
        <mxCell id="1jOMe3DSmXeNATYC33Cs-367" value="" style="html=1;overflow=block;blockSpacing=1;whiteSpace=wrap;fontSize=13;spacing=3.8;strokeColor=#3a414a;strokeOpacity=100;fillOpacity=100;rounded=1;absoluteArcSize=1;arcSize=1.5;fillColor=#d7faf5;strokeWidth=0.8;lucidId=dSsZKM5ELoIu;" parent="1" vertex="1">
          <mxGeometry x="178.5" y="850" width="30" height="50" as="geometry" />
        </mxCell>
        <mxCell id="1jOMe3DSmXeNATYC33Cs-368" value="" style="html=1;overflow=block;blockSpacing=1;whiteSpace=wrap;fontSize=13;spacing=3.8;strokeColor=#3a414a;strokeOpacity=100;fillOpacity=100;rounded=1;absoluteArcSize=1;arcSize=1.5;fillColor=#fff3d9;strokeWidth=0.8;lucidId=sSsZeGLB3X2o;" parent="1" vertex="1">
          <mxGeometry x="148.5" y="850" width="30" height="50" as="geometry" />
        </mxCell>
        <mxCell id="1jOMe3DSmXeNATYC33Cs-369" value="" style="html=1;overflow=block;blockSpacing=1;whiteSpace=wrap;fontSize=13;spacing=3.8;strokeColor=#3a414a;strokeOpacity=100;fillOpacity=100;rounded=1;absoluteArcSize=1;arcSize=1.5;fillColor=#fff3d9;strokeWidth=0.8;lucidId=sSsZeGLB3X2o;" parent="1" vertex="1">
          <mxGeometry x="-44" y="770" width="30" height="50" as="geometry" />
        </mxCell>
        <mxCell id="1jOMe3DSmXeNATYC33Cs-450" style="edgeStyle=orthogonalEdgeStyle;rounded=0;orthogonalLoop=1;jettySize=auto;html=1;exitX=1;exitY=0.5;exitDx=0;exitDy=0;entryX=0;entryY=0.5;entryDx=0;entryDy=0;" parent="1" source="1jOMe3DSmXeNATYC33Cs-370" target="1jOMe3DSmXeNATYC33Cs-365" edge="1">
          <mxGeometry relative="1" as="geometry" />
        </mxCell>
        <mxCell id="1jOMe3DSmXeNATYC33Cs-370" value="" style="html=1;overflow=block;blockSpacing=1;whiteSpace=wrap;fontSize=13;spacing=3.8;strokeColor=#3a414a;strokeOpacity=100;fillOpacity=100;rounded=1;absoluteArcSize=1;arcSize=1.5;fillColor=#d7faf5;strokeWidth=0.8;lucidId=dSsZKM5ELoIu;" parent="1" vertex="1">
          <mxGeometry x="16" y="770" width="30" height="50" as="geometry" />
        </mxCell>
        <mxCell id="1jOMe3DSmXeNATYC33Cs-371" value="" style="html=1;overflow=block;blockSpacing=1;whiteSpace=wrap;fontSize=13;spacing=3.8;strokeColor=#3a414a;strokeOpacity=100;fillOpacity=100;rounded=1;absoluteArcSize=1;arcSize=1.5;fillColor=#fff3d9;strokeWidth=0.8;lucidId=sSsZeGLB3X2o;" parent="1" vertex="1">
          <mxGeometry x="-14" y="770" width="30" height="50" as="geometry" />
        </mxCell>
        <mxCell id="1jOMe3DSmXeNATYC33Cs-449" style="edgeStyle=orthogonalEdgeStyle;rounded=0;orthogonalLoop=1;jettySize=auto;html=1;exitX=0.5;exitY=0;exitDx=0;exitDy=0;entryX=0.5;entryY=1;entryDx=0;entryDy=0;" parent="1" source="1jOMe3DSmXeNATYC33Cs-372" target="1jOMe3DSmXeNATYC33Cs-369" edge="1">
          <mxGeometry relative="1" as="geometry" />
        </mxCell>
        <mxCell id="1jOMe3DSmXeNATYC33Cs-372" value="" style="html=1;overflow=block;blockSpacing=1;whiteSpace=wrap;fontSize=13;spacing=3.8;strokeColor=#3a414a;strokeOpacity=100;fillOpacity=100;rounded=1;absoluteArcSize=1;arcSize=1.5;fillColor=#fff3d9;strokeWidth=0.8;lucidId=sSsZeGLB3X2o;" parent="1" vertex="1">
          <mxGeometry x="-44" y="850" width="30" height="50" as="geometry" />
        </mxCell>
        <mxCell id="1jOMe3DSmXeNATYC33Cs-373" value="" style="html=1;overflow=block;blockSpacing=1;whiteSpace=wrap;fontSize=13;spacing=3.8;strokeColor=#3a414a;strokeOpacity=100;fillOpacity=100;rounded=1;absoluteArcSize=1;arcSize=1.5;fillColor=#d7faf5;strokeWidth=0.8;lucidId=dSsZKM5ELoIu;" parent="1" vertex="1">
          <mxGeometry x="16" y="850" width="30" height="50" as="geometry" />
        </mxCell>
        <mxCell id="1jOMe3DSmXeNATYC33Cs-374" value="" style="html=1;overflow=block;blockSpacing=1;whiteSpace=wrap;fontSize=13;spacing=3.8;strokeColor=#3a414a;strokeOpacity=100;fillOpacity=100;rounded=1;absoluteArcSize=1;arcSize=1.5;fillColor=#fff3d9;strokeWidth=0.8;lucidId=sSsZeGLB3X2o;" parent="1" vertex="1">
          <mxGeometry x="-14" y="850" width="30" height="50" as="geometry" />
        </mxCell>
        <mxCell id="1jOMe3DSmXeNATYC33Cs-448" style="edgeStyle=orthogonalEdgeStyle;rounded=0;orthogonalLoop=1;jettySize=auto;html=1;exitX=0.5;exitY=0;exitDx=0;exitDy=0;entryX=0.5;entryY=1;entryDx=0;entryDy=0;" parent="1" source="1jOMe3DSmXeNATYC33Cs-375" target="1jOMe3DSmXeNATYC33Cs-372" edge="1">
          <mxGeometry relative="1" as="geometry">
            <Array as="points">
              <mxPoint x="144" y="920" />
              <mxPoint x="-29" y="920" />
            </Array>
          </mxGeometry>
        </mxCell>
        <mxCell id="1jOMe3DSmXeNATYC33Cs-375" value="" style="html=1;overflow=block;blockSpacing=1;whiteSpace=wrap;fontSize=13;spacing=3.8;strokeColor=#3a414a;strokeOpacity=100;fillOpacity=100;rounded=1;absoluteArcSize=1;arcSize=1.5;fillColor=#d7faf5;strokeWidth=0.8;lucidId=dSsZKM5ELoIu;" parent="1" vertex="1">
          <mxGeometry x="78.5" y="930" width="130" height="50" as="geometry" />
        </mxCell>
        <mxCell id="1jOMe3DSmXeNATYC33Cs-376" value="" style="html=1;overflow=block;blockSpacing=1;whiteSpace=wrap;fontSize=13;spacing=3.8;strokeColor=#3a414a;strokeOpacity=100;fillOpacity=100;rounded=1;absoluteArcSize=1;arcSize=1.5;fillColor=#fff3d9;strokeWidth=0.8;lucidId=sSsZeGLB3X2o;" parent="1" vertex="1">
          <mxGeometry x="-45.5" y="930" width="124" height="50" as="geometry" />
        </mxCell>
        <mxCell id="1jOMe3DSmXeNATYC33Cs-377" value="&lt;font size=&quot;1&quot; style=&quot;&quot;&gt;&lt;b style=&quot;font-size: 22px;&quot;&gt;InceptionResnetV2&lt;/b&gt;&lt;/font&gt;" style="text;strokeColor=none;align=center;fillColor=none;html=1;verticalAlign=middle;whiteSpace=wrap;rounded=0;" parent="1" vertex="1">
          <mxGeometry x="-986" y="690" width="210" height="30" as="geometry" />
        </mxCell>
        <mxCell id="1jOMe3DSmXeNATYC33Cs-378" value="&lt;font size=&quot;1&quot; style=&quot;&quot;&gt;&lt;b style=&quot;font-size: 22px;&quot;&gt;Denset121&lt;/b&gt;&lt;/font&gt;" style="text;strokeColor=none;align=center;fillColor=none;html=1;verticalAlign=middle;whiteSpace=wrap;rounded=0;" parent="1" vertex="1">
          <mxGeometry x="-419.19" y="690" width="170" height="30" as="geometry" />
        </mxCell>
        <mxCell id="1jOMe3DSmXeNATYC33Cs-379" value="&lt;font size=&quot;1&quot; style=&quot;&quot;&gt;&lt;b style=&quot;font-size: 22px;&quot;&gt;VGG16&lt;/b&gt;&lt;/font&gt;" style="text;strokeColor=none;align=center;fillColor=none;html=1;verticalAlign=middle;whiteSpace=wrap;rounded=0;" parent="1" vertex="1">
          <mxGeometry x="10" y="690" width="140" height="30" as="geometry" />
        </mxCell>
        <mxCell id="1jOMe3DSmXeNATYC33Cs-428" style="edgeStyle=orthogonalEdgeStyle;rounded=0;orthogonalLoop=1;jettySize=auto;html=1;exitX=0.5;exitY=0;exitDx=0;exitDy=0;entryX=0.607;entryY=1.043;entryDx=0;entryDy=0;entryPerimeter=0;strokeWidth=2;" parent="1" source="1jOMe3DSmXeNATYC33Cs-384" target="1jOMe3DSmXeNATYC33Cs-392" edge="1">
          <mxGeometry relative="1" as="geometry" />
        </mxCell>
        <mxCell id="1jOMe3DSmXeNATYC33Cs-384" value="&lt;font style=&quot;font-size: 20px;&quot;&gt;Global Average Pooling&lt;/font&gt;" style="rounded=0;whiteSpace=wrap;html=1;fillColor=#D89999;fontColor=#ffffff;strokeColor=#A50040;" parent="1" vertex="1">
          <mxGeometry x="-1143" y="590" width="523" height="40" as="geometry" />
        </mxCell>
        <mxCell id="1jOMe3DSmXeNATYC33Cs-406" style="edgeStyle=orthogonalEdgeStyle;rounded=0;orthogonalLoop=1;jettySize=auto;html=1;exitX=0.5;exitY=0;exitDx=0;exitDy=0;entryX=0.5;entryY=1;entryDx=0;entryDy=0;strokeWidth=2;" parent="1" source="1jOMe3DSmXeNATYC33Cs-385" target="1jOMe3DSmXeNATYC33Cs-397" edge="1">
          <mxGeometry relative="1" as="geometry" />
        </mxCell>
        <mxCell id="1jOMe3DSmXeNATYC33Cs-385" value="&lt;font style=&quot;font-size: 20px;&quot;&gt;Global Average Pooling&lt;/font&gt;" style="rounded=0;whiteSpace=wrap;html=1;fillColor=#D89999;fontColor=#ffffff;strokeColor=#A50040;" parent="1" vertex="1">
          <mxGeometry x="-601" y="590" width="523" height="40" as="geometry" />
        </mxCell>
        <mxCell id="1jOMe3DSmXeNATYC33Cs-407" style="edgeStyle=orthogonalEdgeStyle;rounded=0;orthogonalLoop=1;jettySize=auto;html=1;exitX=0.5;exitY=0;exitDx=0;exitDy=0;entryX=0.5;entryY=1;entryDx=0;entryDy=0;strokeWidth=2;" parent="1" source="1jOMe3DSmXeNATYC33Cs-386" target="1jOMe3DSmXeNATYC33Cs-402" edge="1">
          <mxGeometry relative="1" as="geometry" />
        </mxCell>
        <mxCell id="1jOMe3DSmXeNATYC33Cs-386" value="&lt;font style=&quot;font-size: 20px;&quot;&gt;Global Average Pooling&lt;/font&gt;" style="rounded=0;whiteSpace=wrap;html=1;fillColor=#D89999;fontColor=#ffffff;strokeColor=#A50040;" parent="1" vertex="1">
          <mxGeometry x="-60" y="590" width="280" height="40" as="geometry" />
        </mxCell>
        <mxCell id="1jOMe3DSmXeNATYC33Cs-390" value="F1" style="html=1;overflow=block;blockSpacing=1;whiteSpace=wrap;fontSize=19;spacing=3.8;strokeColor=#36393d;strokeOpacity=100;fillOpacity=100;rounded=1;absoluteArcSize=1;arcSize=1.5;fillColor=#eeeeee;strokeWidth=0.8;lucidId=sSsZeGLB3X2o;" parent="1" vertex="1">
          <mxGeometry x="-1141" y="510" width="51" height="50" as="geometry" />
        </mxCell>
        <mxCell id="1jOMe3DSmXeNATYC33Cs-391" value="F2" style="html=1;overflow=block;blockSpacing=1;whiteSpace=wrap;fontSize=19;spacing=3.8;strokeColor=#36393d;strokeOpacity=100;fillOpacity=100;rounded=1;absoluteArcSize=1;arcSize=1.5;fillColor=#eeeeee;strokeWidth=0.8;lucidId=sSsZeGLB3X2o;" parent="1" vertex="1">
          <mxGeometry x="-1090" y="510" width="51" height="50" as="geometry" />
        </mxCell>
        <mxCell id="1jOMe3DSmXeNATYC33Cs-413" style="edgeStyle=orthogonalEdgeStyle;rounded=0;orthogonalLoop=1;jettySize=auto;html=1;exitX=0.5;exitY=0;exitDx=0;exitDy=0;fillColor=#eeeeee;strokeColor=#36393d;fontSize=19;strokeWidth=2;" parent="1" source="1jOMe3DSmXeNATYC33Cs-392" target="1jOMe3DSmXeNATYC33Cs-410" edge="1">
          <mxGeometry relative="1" as="geometry" />
        </mxCell>
        <mxCell id="1jOMe3DSmXeNATYC33Cs-392" value="&lt;font style=&quot;font-size: 19px;&quot;&gt;...&lt;/font&gt;" style="html=1;overflow=block;blockSpacing=1;whiteSpace=wrap;fontSize=19;spacing=3.8;strokeColor=#36393d;strokeOpacity=100;fillOpacity=100;rounded=1;absoluteArcSize=1;arcSize=1.5;fillColor=#eeeeee;strokeWidth=0.8;lucidId=sSsZeGLB3X2o;" parent="1" vertex="1">
          <mxGeometry x="-1039" y="510" width="259" height="50" as="geometry" />
        </mxCell>
        <mxCell id="1jOMe3DSmXeNATYC33Cs-393" value="F1535" style="html=1;overflow=block;blockSpacing=1;whiteSpace=wrap;fontSize=19;spacing=3.8;strokeColor=#36393d;strokeOpacity=100;fillOpacity=100;rounded=1;absoluteArcSize=1;arcSize=1.5;fillColor=#eeeeee;strokeWidth=0.8;lucidId=sSsZeGLB3X2o;" parent="1" vertex="1">
          <mxGeometry x="-780" y="510" width="80" height="50" as="geometry" />
        </mxCell>
        <mxCell id="1jOMe3DSmXeNATYC33Cs-394" value="F1536" style="html=1;overflow=block;blockSpacing=1;whiteSpace=wrap;fontSize=19;spacing=3.8;strokeColor=#36393d;strokeOpacity=100;fillOpacity=100;rounded=1;absoluteArcSize=1;arcSize=1.5;fillColor=#eeeeee;strokeWidth=0.8;lucidId=sSsZeGLB3X2o;" parent="1" vertex="1">
          <mxGeometry x="-700" y="510" width="80.5" height="50" as="geometry" />
        </mxCell>
        <mxCell id="1jOMe3DSmXeNATYC33Cs-395" value="F1" style="html=1;overflow=block;blockSpacing=1;whiteSpace=wrap;fontSize=19;spacing=3.8;strokeColor=#36393d;strokeOpacity=100;fillOpacity=100;rounded=1;absoluteArcSize=1;arcSize=1.5;fillColor=#eeeeee;strokeWidth=0.8;lucidId=sSsZeGLB3X2o;" parent="1" vertex="1">
          <mxGeometry x="-602.5" y="510" width="51" height="50" as="geometry" />
        </mxCell>
        <mxCell id="1jOMe3DSmXeNATYC33Cs-396" value="F2" style="html=1;overflow=block;blockSpacing=1;whiteSpace=wrap;fontSize=19;spacing=3.8;strokeColor=#36393d;strokeOpacity=100;fillOpacity=100;rounded=1;absoluteArcSize=1;arcSize=1.5;fillColor=#eeeeee;strokeWidth=0.8;lucidId=sSsZeGLB3X2o;" parent="1" vertex="1">
          <mxGeometry x="-551.5" y="510" width="51" height="50" as="geometry" />
        </mxCell>
        <mxCell id="1jOMe3DSmXeNATYC33Cs-414" style="edgeStyle=orthogonalEdgeStyle;rounded=0;orthogonalLoop=1;jettySize=auto;html=1;exitX=0.5;exitY=0;exitDx=0;exitDy=0;entryX=0.5;entryY=1;entryDx=0;entryDy=0;fillColor=#eeeeee;strokeColor=#36393d;fontSize=19;strokeWidth=2;" parent="1" source="1jOMe3DSmXeNATYC33Cs-397" target="1jOMe3DSmXeNATYC33Cs-410" edge="1">
          <mxGeometry relative="1" as="geometry" />
        </mxCell>
        <mxCell id="1jOMe3DSmXeNATYC33Cs-397" value="&lt;font style=&quot;font-size: 19px;&quot;&gt;...&lt;/font&gt;" style="html=1;overflow=block;blockSpacing=1;whiteSpace=wrap;fontSize=19;spacing=3.8;strokeColor=#36393d;strokeOpacity=100;fillOpacity=100;rounded=1;absoluteArcSize=1;arcSize=1.5;fillColor=#eeeeee;strokeWidth=0.8;lucidId=sSsZeGLB3X2o;" parent="1" vertex="1">
          <mxGeometry x="-500.5" y="510" width="280.5" height="50" as="geometry" />
        </mxCell>
        <mxCell id="1jOMe3DSmXeNATYC33Cs-398" value="F1023" style="html=1;overflow=block;blockSpacing=1;whiteSpace=wrap;fontSize=19;spacing=3.8;strokeColor=#36393d;strokeOpacity=100;fillOpacity=100;rounded=1;absoluteArcSize=1;arcSize=1.5;fillColor=#eeeeee;strokeWidth=0.8;lucidId=sSsZeGLB3X2o;" parent="1" vertex="1">
          <mxGeometry x="-230" y="510" width="70" height="50" as="geometry" />
        </mxCell>
        <mxCell id="1jOMe3DSmXeNATYC33Cs-399" value="F1024" style="html=1;overflow=block;blockSpacing=1;whiteSpace=wrap;fontSize=19;spacing=3.8;strokeColor=#36393d;strokeOpacity=100;fillOpacity=100;rounded=1;absoluteArcSize=1;arcSize=1.5;fillColor=#eeeeee;strokeWidth=0.8;lucidId=sSsZeGLB3X2o;" parent="1" vertex="1">
          <mxGeometry x="-160" y="510" width="79" height="50" as="geometry" />
        </mxCell>
        <mxCell id="1jOMe3DSmXeNATYC33Cs-400" value="F1" style="html=1;overflow=block;blockSpacing=1;whiteSpace=wrap;fontSize=19;spacing=3.8;strokeColor=#36393d;strokeOpacity=100;fillOpacity=100;rounded=1;absoluteArcSize=1;arcSize=1.5;fillColor=#eeeeee;strokeWidth=0.8;lucidId=sSsZeGLB3X2o;" parent="1" vertex="1">
          <mxGeometry x="-60" y="510" width="51" height="50" as="geometry" />
        </mxCell>
        <mxCell id="1jOMe3DSmXeNATYC33Cs-401" value="F2" style="html=1;overflow=block;blockSpacing=1;whiteSpace=wrap;fontSize=19;spacing=3.8;strokeColor=#36393d;strokeOpacity=100;fillOpacity=100;rounded=1;absoluteArcSize=1;arcSize=1.5;fillColor=#eeeeee;strokeWidth=0.8;lucidId=sSsZeGLB3X2o;" parent="1" vertex="1">
          <mxGeometry x="-9" y="510" width="51" height="50" as="geometry" />
        </mxCell>
        <mxCell id="1jOMe3DSmXeNATYC33Cs-415" style="edgeStyle=orthogonalEdgeStyle;rounded=0;orthogonalLoop=1;jettySize=auto;html=1;exitX=0.5;exitY=0;exitDx=0;exitDy=0;entryX=0.5;entryY=1;entryDx=0;entryDy=0;fillColor=#eeeeee;strokeColor=#36393d;fontSize=19;strokeWidth=2;" parent="1" source="1jOMe3DSmXeNATYC33Cs-402" target="1jOMe3DSmXeNATYC33Cs-410" edge="1">
          <mxGeometry relative="1" as="geometry" />
        </mxCell>
        <mxCell id="1jOMe3DSmXeNATYC33Cs-402" value="&lt;font style=&quot;font-size: 19px;&quot;&gt;...&lt;/font&gt;" style="html=1;overflow=block;blockSpacing=1;whiteSpace=wrap;fontSize=19;spacing=3.8;strokeColor=#36393d;strokeOpacity=100;fillOpacity=100;rounded=1;absoluteArcSize=1;arcSize=1.5;fillColor=#eeeeee;strokeWidth=0.8;lucidId=sSsZeGLB3X2o;" parent="1" vertex="1">
          <mxGeometry x="42" y="510" width="78" height="50" as="geometry" />
        </mxCell>
        <mxCell id="1jOMe3DSmXeNATYC33Cs-403" value="F511" style="html=1;overflow=block;blockSpacing=1;whiteSpace=wrap;fontSize=19;spacing=3.8;strokeColor=#36393d;strokeOpacity=100;fillOpacity=100;rounded=1;absoluteArcSize=1;arcSize=1.5;fillColor=#eeeeee;strokeWidth=0.8;lucidId=sSsZeGLB3X2o;" parent="1" vertex="1">
          <mxGeometry x="118" y="510" width="51" height="50" as="geometry" />
        </mxCell>
        <mxCell id="1jOMe3DSmXeNATYC33Cs-404" value="F512" style="html=1;overflow=block;blockSpacing=1;whiteSpace=wrap;fontSize=19;spacing=3.8;strokeColor=#36393d;strokeOpacity=100;fillOpacity=100;rounded=1;absoluteArcSize=1;arcSize=1.5;fillColor=#eeeeee;strokeWidth=0.8;lucidId=sSsZeGLB3X2o;" parent="1" vertex="1">
          <mxGeometry x="169" y="510" width="51" height="50" as="geometry" />
        </mxCell>
        <mxCell id="1jOMe3DSmXeNATYC33Cs-408" value="F1" style="html=1;overflow=block;blockSpacing=1;whiteSpace=wrap;fontSize=19;spacing=3.8;strokeColor=#36393d;strokeOpacity=100;fillOpacity=100;rounded=1;absoluteArcSize=1;arcSize=1.5;fillColor=#eeeeee;strokeWidth=0.8;lucidId=sSsZeGLB3X2o;" parent="1" vertex="1">
          <mxGeometry x="-1143" y="410" width="51" height="50" as="geometry" />
        </mxCell>
        <mxCell id="1jOMe3DSmXeNATYC33Cs-409" value="F2" style="html=1;overflow=block;blockSpacing=1;whiteSpace=wrap;fontSize=19;spacing=3.8;strokeColor=#36393d;strokeOpacity=100;fillOpacity=100;rounded=1;absoluteArcSize=1;arcSize=1.5;fillColor=#eeeeee;strokeWidth=0.8;lucidId=sSsZeGLB3X2o;" parent="1" vertex="1">
          <mxGeometry x="-1092" y="410" width="51" height="50" as="geometry" />
        </mxCell>
        <mxCell id="1jOMe3DSmXeNATYC33Cs-427" style="edgeStyle=orthogonalEdgeStyle;rounded=0;orthogonalLoop=1;jettySize=auto;html=1;exitX=0.5;exitY=0;exitDx=0;exitDy=0;entryX=0.479;entryY=1.008;entryDx=0;entryDy=0;entryPerimeter=0;strokeWidth=2;" parent="1" source="1jOMe3DSmXeNATYC33Cs-410" target="1jOMe3DSmXeNATYC33Cs-416" edge="1">
          <mxGeometry relative="1" as="geometry" />
        </mxCell>
        <mxCell id="1jOMe3DSmXeNATYC33Cs-410" value="&lt;font style=&quot;font-size: 19px;&quot;&gt;...&lt;/font&gt;" style="html=1;overflow=block;blockSpacing=1;whiteSpace=wrap;fontSize=19;spacing=3.8;strokeColor=#36393d;strokeOpacity=100;fillOpacity=100;rounded=1;absoluteArcSize=1;arcSize=1.5;fillColor=#eeeeee;strokeWidth=0.8;lucidId=sSsZeGLB3X2o;" parent="1" vertex="1">
          <mxGeometry x="-1041" y="410" width="1101" height="50" as="geometry" />
        </mxCell>
        <mxCell id="1jOMe3DSmXeNATYC33Cs-411" value="F3071" style="html=1;overflow=block;blockSpacing=1;whiteSpace=wrap;fontSize=19;spacing=3.8;strokeColor=#36393d;strokeOpacity=100;fillOpacity=100;rounded=1;absoluteArcSize=1;arcSize=1.5;fillColor=#eeeeee;strokeWidth=0.8;lucidId=sSsZeGLB3X2o;" parent="1" vertex="1">
          <mxGeometry x="60" y="410" width="80" height="50" as="geometry" />
        </mxCell>
        <mxCell id="1jOMe3DSmXeNATYC33Cs-412" value="F3072" style="html=1;overflow=block;blockSpacing=1;whiteSpace=wrap;fontSize=19;spacing=3.8;strokeColor=#36393d;strokeOpacity=100;fillOpacity=100;rounded=1;absoluteArcSize=1;arcSize=1.5;fillColor=#eeeeee;strokeWidth=0.8;lucidId=sSsZeGLB3X2o;" parent="1" vertex="1">
          <mxGeometry x="140" y="410" width="80" height="50" as="geometry" />
        </mxCell>
        <mxCell id="1jOMe3DSmXeNATYC33Cs-452" style="edgeStyle=orthogonalEdgeStyle;rounded=0;orthogonalLoop=1;jettySize=auto;html=1;exitX=0.5;exitY=0;exitDx=0;exitDy=0;entryX=0.5;entryY=1;entryDx=0;entryDy=0;strokeWidth=2;" parent="1" source="1jOMe3DSmXeNATYC33Cs-416" target="1jOMe3DSmXeNATYC33Cs-419" edge="1">
          <mxGeometry relative="1" as="geometry" />
        </mxCell>
        <mxCell id="1jOMe3DSmXeNATYC33Cs-416" value="&lt;font style=&quot;font-size: 25px;&quot;&gt;Support Vector Machine Classifier&lt;/font&gt;" style="rounded=0;whiteSpace=wrap;html=1;fillColor=#E7D8C7;strokeColor=#9673a6;" parent="1" vertex="1">
          <mxGeometry x="-1143.5" y="310" width="1363.5" height="60" as="geometry" />
        </mxCell>
        <mxCell id="1jOMe3DSmXeNATYC33Cs-419" value="&lt;font style=&quot;font-size: 25px;&quot;&gt;&lt;b&gt;Output&lt;/b&gt;: Positive/Negative for Acute Lymphoblastic Leukemia&lt;/font&gt;" style="rounded=0;whiteSpace=wrap;html=1;fillColor=#d5e8d4;strokeColor=#82b366;" parent="1" vertex="1">
          <mxGeometry x="-1143.5" y="220" width="1363.5" height="60" as="geometry" />
        </mxCell>
        <mxCell id="1jOMe3DSmXeNATYC33Cs-420" value="&lt;font style=&quot;font-size: 26px;&quot;&gt;LEGEND&lt;br&gt;&lt;br&gt;&lt;br&gt;&lt;/font&gt;" style="rounded=0;whiteSpace=wrap;html=1;dashed=1;strokeWidth=2;" parent="1" vertex="1">
          <mxGeometry x="-1310" y="1160" width="1516" height="150" as="geometry" />
        </mxCell>
        <mxCell id="1jOMe3DSmXeNATYC33Cs-421" value="" style="html=1;overflow=block;blockSpacing=1;whiteSpace=wrap;fontSize=13;spacing=3.8;strokeColor=#3a414a;strokeOpacity=100;fillOpacity=100;rounded=1;absoluteArcSize=1;arcSize=1.5;fillColor=#fff3d9;strokeWidth=0.8;lucidId=sSsZeGLB3X2o;" parent="1" vertex="1">
          <mxGeometry x="-1277" y="1230" width="463" height="50" as="geometry" />
        </mxCell>
        <mxCell id="1jOMe3DSmXeNATYC33Cs-422" value="" style="html=1;overflow=block;blockSpacing=1;whiteSpace=wrap;fontSize=13;spacing=3.8;strokeColor=#3a414a;strokeOpacity=100;fillOpacity=100;rounded=1;absoluteArcSize=1;arcSize=1.5;fillColor=#d7faf5;strokeWidth=0.8;lucidId=dSsZKM5ELoIu;" parent="1" vertex="1">
          <mxGeometry x="-782.5" y="1230" width="463" height="50" as="geometry" />
        </mxCell>
        <mxCell id="1jOMe3DSmXeNATYC33Cs-423" value="" style="rounded=0;whiteSpace=wrap;html=1;fillColor=#D89999;fontColor=#ffffff;strokeColor=#A50040;" parent="1" vertex="1">
          <mxGeometry x="-284" y="1230" width="463" height="50" as="geometry" />
        </mxCell>
        <mxCell id="1jOMe3DSmXeNATYC33Cs-424" value="&lt;font style=&quot;font-size: 22px;&quot;&gt;Convolutional Layer&lt;/font&gt;" style="text;strokeColor=none;align=center;fillColor=none;html=1;verticalAlign=middle;whiteSpace=wrap;rounded=0;" parent="1" vertex="1">
          <mxGeometry x="-1145.5" y="1240" width="200" height="30" as="geometry" />
        </mxCell>
        <mxCell id="1jOMe3DSmXeNATYC33Cs-425" value="&lt;font style=&quot;font-size: 22px;&quot;&gt;Max Pooling Layer&lt;/font&gt;" style="text;strokeColor=none;align=center;fillColor=none;html=1;verticalAlign=middle;whiteSpace=wrap;rounded=0;" parent="1" vertex="1">
          <mxGeometry x="-632" y="1240" width="200" height="30" as="geometry" />
        </mxCell>
        <mxCell id="1jOMe3DSmXeNATYC33Cs-426" value="&lt;font style=&quot;font-size: 22px;&quot;&gt;Global Average Pooling&lt;/font&gt;" style="text;strokeColor=none;align=center;fillColor=none;html=1;verticalAlign=middle;whiteSpace=wrap;rounded=0;" parent="1" vertex="1">
          <mxGeometry x="-187.5" y="1240" width="270" height="30" as="geometry" />
        </mxCell>
        <mxCell id="1jOMe3DSmXeNATYC33Cs-439" style="edgeStyle=orthogonalEdgeStyle;rounded=0;orthogonalLoop=1;jettySize=auto;html=1;exitX=0.5;exitY=1;exitDx=0;exitDy=0;entryX=0;entryY=0.5;entryDx=0;entryDy=0;strokeWidth=2;" parent="1" source="1jOMe3DSmXeNATYC33Cs-1" target="1jOMe3DSmXeNATYC33Cs-222" edge="1">
          <mxGeometry relative="1" as="geometry">
            <mxPoint x="-1370" y="747" as="sourcePoint" />
            <mxPoint x="-1157" y="842" as="targetPoint" />
            <Array as="points">
              <mxPoint x="-1320" y="805" />
            </Array>
          </mxGeometry>
        </mxCell>
        <mxCell id="1jOMe3DSmXeNATYC33Cs-443" style="edgeStyle=orthogonalEdgeStyle;rounded=0;orthogonalLoop=1;jettySize=auto;html=1;exitX=0.5;exitY=1;exitDx=0;exitDy=0;entryX=0.5;entryY=1;entryDx=0;entryDy=0;strokeWidth=2;" parent="1" edge="1">
          <mxGeometry relative="1" as="geometry">
            <mxPoint x="-1320" y="710" as="sourcePoint" />
            <mxPoint x="-571" y="860" as="targetPoint" />
            <Array as="points">
              <mxPoint x="-1320" y="1100" />
              <mxPoint x="-571" y="1100" />
            </Array>
          </mxGeometry>
        </mxCell>
        <mxCell id="1jOMe3DSmXeNATYC33Cs-447" style="edgeStyle=orthogonalEdgeStyle;rounded=0;orthogonalLoop=1;jettySize=auto;html=1;exitX=0.5;exitY=1;exitDx=0;exitDy=0;entryX=0.5;entryY=1;entryDx=0;entryDy=0;strokeWidth=2;" parent="1" target="1jOMe3DSmXeNATYC33Cs-376" edge="1">
          <mxGeometry relative="1" as="geometry">
            <mxPoint x="-1320" y="710" as="sourcePoint" />
            <mxPoint x="18" y="960" as="targetPoint" />
            <Array as="points">
              <mxPoint x="-1320" y="1100" />
              <mxPoint x="17" y="1100" />
              <mxPoint x="17" y="980" />
            </Array>
          </mxGeometry>
        </mxCell>
      </root>
    </mxGraphModel>
  </diagram>
</mxfile>
